<?xml version="1.0" encoding="utf-8"?>
<!-- Generator: Adobe Illustrator 14.0.0, SVG Export Plug-In . SVG Version: 6.00 Build 43363)  -->
<svg version="1.2" baseProfile="tiny" id="Layer_1" xmlns="http://www.w3.org/2000/svg" xmlns:xlink="http://www.w3.org/1999/xlink"
	 x="0px" y="0px" width="165px" height="100px" viewBox="0 0 165 100" xml:space="preserve">
<g>
	<path fill="#FFFFFF" d="M8.732,79.933V14.505h37.888c18.45,0,31.859,13.049,31.859,32.039S65.07,79.933,46.621,79.933H8.732z
		 M46.621,68.503c11.79,0,20.429-9.089,20.429-21.419c0-12.33-8.64-21.149-20.429-21.149H20.072v42.568H46.621z"/>
	<path fill="#FFFFFF" d="M87.842,79.933v-11.43h49.048c6.12,0,9.54-3.42,9.54-8.55c0-5.58-3.42-8.459-9.54-8.459h-30.059
		c-12.33,0-19.979-7.83-19.979-18.629c0-10.53,7.109-18.359,20.159-18.359h46.979v11.429h-46.979c-5.22,0-8.279,3.06-8.279,8.01
		c0,4.95,3.149,7.92,8.189,7.92h29.969c13.229,0,20.339,6.209,20.339,18.899c0,10.979-6.659,19.169-20.339,19.169H87.842z"/>
	<path fill="#FFFFFF" d="M8.522,94.332v-8.719h5.049c2.459,0,4.246,1.739,4.246,4.27c0,2.531-1.787,4.449-4.246,4.449H8.522z
		 M13.571,92.81c1.571,0,2.723-1.212,2.723-2.854s-1.151-2.818-2.723-2.818h-3.538v5.673H13.571z"/>
	<path fill="#FFFFFF" d="M23.052,94.332c-2.435,0-4.233-1.918-4.233-4.449c0-2.566,1.799-4.27,4.233-4.27h2.123
		c2.519,0,4.27,1.739,4.27,4.27c0,2.531-1.787,4.449-4.27,4.449H23.052z M25.175,92.81c1.607,0,2.747-1.212,2.747-2.854
		s-1.14-2.818-2.747-2.818h-2.123c-1.559,0-2.71,1.163-2.71,2.818c0,1.643,1.139,2.854,2.71,2.854H25.175z"/>
	<path fill="#FFFFFF" d="M32.101,87.952v6.38H30.65v-7.915c0-0.563,0.3-0.911,0.779-0.911c0.228,0,0.42,0.084,0.648,0.312
		l6.152,6.104v-6.381h1.451v7.988c0,0.575-0.312,0.911-0.755,0.911c-0.252,0-0.48-0.108-0.696-0.323L32.101,87.952z"/>
	<path fill="#FFFFFF" d="M41.162,94.332V92.81h6.537c0.815,0,1.271-0.456,1.271-1.14c0-0.744-0.456-1.127-1.271-1.127h-4.006
		c-1.643,0-2.663-1.044-2.663-2.482c0-1.404,0.948-2.447,2.687-2.447h6.261v1.523h-6.261c-0.695,0-1.103,0.408-1.103,1.067
		s0.419,1.056,1.091,1.056h3.994c1.763,0,2.71,0.827,2.71,2.518c0,1.464-0.887,2.555-2.71,2.555H41.162z"/>
	<path fill="#FFFFFF" d="M55.703,94.332c-2.435,0-4.233-1.918-4.233-4.449c0-2.566,1.799-4.27,4.233-4.27h4.726v1.523h-4.726
		c-1.559,0-2.71,1.163-2.71,2.818c0,1.643,1.139,2.854,2.71,2.854h4.726v1.522H55.703z"/>
	<path fill="#FFFFFF" d="M61.67,94.369v-8.756h1.522v8.756H61.67z M68.686,94.369v-3.791h-4.39v-1.355h4.39v-3.609h1.523v8.756
		H68.686z"/>
	<path fill="#FFFFFF" d="M80.816,94.332l-1.308-2.194h-4.126l0.72-1.235h2.675l-1.942-3.262l-3.958,6.691h-1.739l5.013-8.347
		c0.181-0.3,0.408-0.492,0.744-0.492s0.552,0.192,0.731,0.492l5.025,8.347H80.816z"/>
	<path fill="#FFFFFF" d="M83.594,94.332v-8.719h7.783v1.523h-6.272v5.673h6.285v1.522H83.594z M86.22,90.543V89.26h4.834v1.283
		H86.22z"/>
	<path fill="#FFFFFF" d="M92.701,94.332v-8.719h7.399v1.523h-5.889v7.195H92.701z M95.327,90.723v-1.332h4.414v1.332H95.327z"/>
	<path fill="#FFFFFF" d="M101.161,94.332v-8.719h7.783v1.523h-6.272v5.673h6.285v1.522H101.161z M103.787,90.543V89.26h4.834v1.283
		H103.787z"/>
	<path fill="#FFFFFF" d="M118.365,94.332l-2.207-2.422h-3.263v-1.344h3.635c1.091,0,1.667-0.623,1.667-1.751
		s-0.624-1.679-1.667-1.679h-4.75v7.195h-1.511v-8.719h6.261c1.99,0,3.166,1.235,3.166,3.178c0,1.439-0.672,2.459-1.799,2.891
		l2.626,2.65H118.365z"/>
	<path fill="#FFFFFF" d="M122.125,94.429c-0.456,0-0.804-0.36-0.804-0.815c0-0.456,0.348-0.816,0.804-0.816
		c0.468,0,0.827,0.36,0.827,0.816C122.952,94.068,122.593,94.429,122.125,94.429z"/>
	<path fill="#FFFFFF" d="M127.906,94.332c-2.435,0-4.233-1.918-4.233-4.449c0-2.566,1.799-4.27,4.233-4.27h4.726v1.523h-4.726
		c-1.559,0-2.71,1.163-2.71,2.818c0,1.643,1.139,2.854,2.71,2.854h4.726v1.522H127.906z"/>
	<path fill="#FFFFFF" d="M137.854,94.332c-2.435,0-4.233-1.918-4.233-4.449c0-2.566,1.799-4.27,4.233-4.27h2.123
		c2.519,0,4.27,1.739,4.27,4.27c0,2.531-1.787,4.449-4.27,4.449H137.854z M139.978,92.81c1.607,0,2.746-1.212,2.746-2.854
		s-1.139-2.818-2.746-2.818h-2.123c-1.559,0-2.71,1.163-2.71,2.818c0,1.643,1.139,2.854,2.71,2.854H139.978z"/>
	<path fill="#FFFFFF" d="M155.862,94.332l-1.667-6.128l-2.471,5.673c-0.168,0.371-0.407,0.576-0.779,0.576
		c-0.359,0-0.624-0.205-0.779-0.576l-2.459-5.673l-1.667,6.128h-1.499l2.242-8.203c0.108-0.42,0.348-0.623,0.756-0.623
		c0.324,0,0.624,0.18,0.768,0.516l2.687,6.164l2.687-6.164c0.144-0.336,0.408-0.516,0.731-0.516c0.372,0,0.612,0.203,0.731,0.623
		l2.231,8.203H155.862z"/>
</g>
</svg>
